<svg width="100" height="100" viewBox="0 0 100 100" fill="none" xmlns="http://www.w3.org/2000/svg">
<path d="M66.6668 41.6667C66.6668 46.0869 64.9109 50.3262 61.7853 53.4518C58.6597 56.5774 54.4204 58.3333 50.0002 58.3333C45.5799 58.3333 41.3407 56.5774 38.215 53.4518C35.0894 50.3262 33.3335 46.0869 33.3335 41.6667C33.3335 37.2464 35.0894 33.0072 38.215 29.8816C41.3407 26.7559 45.5799 25 50.0002 25C54.4204 25 58.6597 26.7559 61.7853 29.8816C64.9109 33.0072 66.6668 37.2464 66.6668 41.6667Z" fill="#F4F6FF"/>
<path fill-rule="evenodd" clip-rule="evenodd" d="M48.3002 91.6334C26.0772 90.7417 8.3335 72.4417 8.3335 50C8.3335 26.9875 26.9877 8.33337 50.0002 8.33337C73.0127 8.33337 91.6668 26.9875 91.6668 50C91.6668 73.0125 73.0127 91.6667 50.0002 91.6667H49.4293C49.0516 91.6667 48.6752 91.6556 48.3002 91.6334ZM23.2627 76.2917C22.9511 75.3971 22.8451 74.4437 22.9524 73.5025C23.0597 72.5613 23.3777 71.6563 23.8826 70.8548C24.3876 70.0532 25.0665 69.3757 25.8692 68.8725C26.6718 68.3693 27.5775 68.0533 28.5189 67.948C44.7606 66.15 55.3397 66.3125 71.5023 67.9855C72.445 68.0836 73.3529 68.3956 74.1568 68.8977C74.9607 69.3998 75.6394 70.0787 76.1413 70.8828C76.6432 71.6868 76.9549 72.5948 77.0529 73.5375C77.1508 74.4803 77.0323 75.4329 76.7064 76.323C83.6337 69.3147 87.513 59.8542 87.5002 50C87.5002 29.2896 70.7106 12.5 50.0002 12.5C29.2897 12.5 12.5002 29.2896 12.5002 50C12.5002 60.2417 16.6064 69.525 23.2627 76.2917Z" fill="#F4F6FF"/>
</svg>
