<svg width="294" height="294" viewBox="0 0 294 294" fill="none" xmlns="http://www.w3.org/2000/svg">
<circle cx="146.156" cy="146.156" r="132.588" fill="white" stroke="#F4F6FF" stroke-width="3"/>
<path d="M195.769 122.355C195.769 135.335 190.612 147.784 181.434 156.963C172.255 166.141 159.807 171.297 146.826 171.297C133.846 171.297 121.398 166.141 112.219 156.963C103.041 147.784 97.8843 135.335 97.8843 122.355C97.8843 109.375 103.041 96.9263 112.219 87.7479C121.398 78.5695 133.846 73.4131 146.826 73.4131C159.807 73.4131 172.255 78.5695 181.434 87.7479C190.612 96.9263 195.769 109.375 195.769 122.355Z" fill="#C7CFF2"/>
<path fill-rule="evenodd" clip-rule="evenodd" d="M141.834 269.084C76.5762 266.466 24.4712 212.727 24.4712 146.827C24.4712 79.2497 79.2497 24.4712 146.827 24.4712C214.403 24.4712 269.182 79.2497 269.182 146.827C269.182 214.403 214.403 269.182 146.827 269.182H145.15C144.041 269.182 142.936 269.149 141.834 269.084ZM68.3111 224.033C67.3963 221.406 67.0849 218.606 67.4001 215.842C67.7152 213.078 68.6489 210.421 70.1316 208.067C71.6144 205.713 73.6083 203.724 75.9652 202.246C78.3221 200.768 80.9816 199.84 83.7462 199.531C131.44 194.252 162.506 194.729 209.968 199.641C212.736 199.93 215.402 200.846 217.763 202.32C220.124 203.795 222.117 205.788 223.591 208.149C225.065 210.51 225.98 213.177 226.268 215.945C226.555 218.713 226.207 221.511 225.25 224.125C245.593 203.544 256.984 175.763 256.946 146.827C256.946 86.0098 207.643 36.7067 146.827 36.7067C86.0098 36.7067 36.7067 86.0098 36.7067 146.827C36.7067 176.902 48.7649 204.162 68.3111 224.033Z" fill="#C7CFF2"/>
</svg>
